<?xml version="1.0" standalone="no"?>
<!DOCTYPE svg PUBLIC "-//W3C//DTD SVG 1.1//EN" "http://www.w3.org/Graphics/SVG/1.1/DTD/svg11.dtd" >
<svg xmlns="http://www.w3.org/2000/svg">
<metadata>Generated by IcoMoon</metadata>
<defs>
<font id="ewgicon" horiz-adv-x="1024">
<font-face units-per-em="1024" ascent="960" descent="-64" />
<missing-glyph horiz-adv-x="1024" />
<glyph unicode="&#x20;" horiz-adv-x="512" d="" />
<glyph unicode="&#xe900;" glyph-name="caret-left" d="M640.947 786.667l-360.005-360 360.005-360 102.128 102.128-257.873 257.873 257.873 257.873z" />
<glyph unicode="&#xe901;" glyph-name="search" d="M420.662 938.667c-232.223 0-420.479-188.256-420.479-420.479s188.256-420.479 420.479-420.479 420.479 188.256 420.479 420.479c-0.201 232.141-188.338 420.278-420.479 420.479zM420.662 243.962c-151.45 0-274.226 122.775-274.226 274.226s122.775 274.226 274.226 274.226 274.226-122.775 274.226-274.226c-0.201-151.368-122.858-274.025-274.226-274.226zM1002.386 39.572l-146.254 146.254c-28.574 28.574-74.9 28.574-103.475 0s-28.574-74.9 0-103.475l146.254-146.254c28.574-28.574 74.9-28.574 103.475 0s28.574 74.9 0 103.475z" />
<glyph unicode="&#xe902;" glyph-name="split" d="M640 938.667l147.2-147.2-185.6-185.6 89.6-89.6 185.6 185.6 147.2-147.2v384zM384 938.667h-384v-384l147.2 147.2 300.8-300.8v-486.4h128v537.6l-339.2 339.2z" />
<glyph unicode="&#xe903;" glyph-name="cog" d="M1018.678 514.995c-3.57 4.675-8.229 7.456-13.999 8.339l-122.006 18.662c-6.664 21.336-15.776 43.108-27.33 65.336 7.991 11.11 19.986 26.774 35.984 47.003 15.998 20.224 27.327 34.996 34.001 44.334 3.556 4.89 5.322 9.996 5.322 15.334 0 6.218-1.541 11.103-4.665 14.664-15.991 22.669-52.661 60.444-109.996 113.335-5.312 4.444-10.884 6.664-16.654 6.664-6.671 0-12.002-1.996-16.005-5.994l-94.662-71.334c-18.228 9.338-38.228 17.56-59.995 24.67l-18.667 122.659c-0.446 5.777-3.005 10.557-7.671 14.335-4.672 3.783-10.106 5.665-16.339 5.665h-147.997c-12.89 0-20.892-6.218-24-18.664-5.779-22.214-12.226-63.547-19.334-123.993-20.892-6.678-41.114-15.122-60.668-25.343l-92 71.334c-5.777 4.444-11.554 6.664-17.331 6.664-9.777 0-30.774-15.888-62.998-47.666-32.224-31.785-54.101-55.671-65.667-71.664-4.002-5.777-5.996-10.891-5.996-15.334 0-5.338 2.218-10.671 6.662-15.998 29.775-36.007 53.557-66.664 71.337-92.009-11.113-20.441-19.778-40.89-25.994-61.331l-124.004-18.662c-4.887-0.892-9.107-3.785-12.665-8.675-3.566-4.885-5.34-10.001-5.34-15.325v-148.004c0-5.786 1.775-10.996 5.333-15.664 3.559-4.665 8.222-7.461 14.001-8.341l122.008-18.003c6.218-21.775 15.327-43.766 27.33-65.982-7.995-11.117-19.995-26.779-35.995-47.003-15.998-20.233-27.341-35.001-34.001-44.334-3.561-4.908-5.336-10.006-5.336-15.341 0-5.77 1.555-10.877 4.663-15.32 17.333-24.014 53.999-61.347 110.003-112.011 4.892-4.89 10.449-7.327 16.665-7.327 6.671 0 12.226 1.989 16.668 5.985l94.008 71.344c18.232-9.333 38.228-17.557 60.005-24.677l18.664-122.659c0.451-5.77 3.005-10.55 7.666-14.337 4.663-3.787 10.113-5.658 16.334-5.658h147.997c12.913 0 20.904 6.216 24.021 18.667 5.77 22.216 12.21 63.545 19.32 123.988 20.89 6.674 41.114 15.122 60.668 25.347l92.007-72.014c6.218-3.998 12.005-5.985 17.326-5.985 9.775 0 30.662 15.766 62.657 47.332 32.012 31.549 54.010 55.552 65.999 72.007 3.995 4.441 5.999 9.55 5.999 15.32 0 5.786-2.211 11.353-6.671 16.67-31.986 39.122-55.769 69.777-71.327 92.007 8.887 16.446 17.557 36.663 26.003 60.665l123.332 18.653c5.322 0.894 9.782 3.787 13.329 8.677 3.556 4.899 5.322 10.013 5.322 15.344v147.988c0.012 5.777-1.754 10.991-5.319 15.661zM632.68 306.003c-33.324-33.338-73.548-50.008-120.668-50.008-47.115 0-87.334 16.67-120.672 50.008-33.326 33.324-49.996 73.55-49.996 120.661 0 47.115 16.661 87.334 49.996 120.672 33.338 33.326 73.564 49.996 120.672 49.996 47.12 0 87.346-16.67 120.668-49.996 33.331-33.338 50.001-73.557 50.001-120.672 0-47.11-16.668-87.339-50.001-120.661z" />
<glyph unicode="&#xe904;" glyph-name="reload" d="M526.167 786.893v132.713c0.071 7.676-4.495 14.639-11.564 17.632-7.187 2.959-15.455 1.231-20.856-4.361l-208.551-208.551c-7.352-7.394-7.352-19.338 0-26.732l208.551-208.551c3.586-3.617 8.478-5.637 13.571-5.608 10.471 0.060 18.91 8.598 18.85 19.069v132.713c149.128-9.965 265.093-133.662 265.426-283.121 0.349-157.062-126.692-284.669-283.754-285.018s-284.669 126.692-285.018 283.754c0 10.471-8.487 18.958-18.958 18.958h-113.755c-10.471 0-18.958-8.487-18.958-18.958 0-240.829 195.232-436.061 436.061-436.061 240.829-5.234 440.304 185.751 445.539 426.581 5.232 240.831-185.754 440.304-426.583 445.541z" />
<glyph unicode="&#xe905;" glyph-name="info" d="M512-85.333c-282.169 0-512 229.831-512 512s229.831 512 512 512 512-229.831 512-512-229.831-512-512-512zM512 847.646c-232.108 0-420.979-188.871-420.979-420.979s188.871-420.979 420.979-420.979 420.979 188.871 420.979 420.979-188.871 420.979-420.979 420.979zM384.569 558.649c-28.443 0-50.062 27.308-43.237 54.612 0 1.138 1.138 2.277 1.138 4.551 5.689 20.48 14.791 39.822 29.582 56.889 13.652 17.068 30.72 30.72 50.062 39.822 19.342 10.24 38.683 15.929 59.163 19.342s40.96 2.277 61.44-1.138c20.48-3.412 40.96-11.378 60.302-22.757s36.409-26.169 50.062-45.511c13.652-18.203 22.757-39.822 27.308-61.44 1.138-5.689 2.277-10.24 3.412-15.929s1.138-10.24 1.138-15.929c1.138-10.24 1.138-20.48-1.138-31.858-2.277-22.757-10.24-45.511-21.618-63.717-11.378-19.342-25.031-34.132-38.683-46.649s-27.308-22.757-40.96-31.858l-15.929-10.24c-3.412-2.277-6.828-4.551-9.102-6.828-4.551-4.551-7.963-9.102-10.24-18.203-2.277-7.963-3.412-20.48-3.412-34.132 0-1.138 0-3.412 0-4.551 0-23.892-19.342-44.372-44.372-44.372-21.618 0-39.822 15.929-43.237 36.409 0 1.138 0 3.412-1.138 4.551-2.277 15.929-4.551 34.132-3.412 55.751s10.24 45.511 23.892 64.852c6.828 10.24 14.791 18.203 22.757 25.031l12.517 10.24 7.963 6.828c21.618 17.068 38.683 34.132 45.511 47.788 3.412 6.828 4.551 13.652 5.689 20.48 0 3.412 0 7.963 0 12.517 0 2.277 0 4.551-1.138 6.828 0 2.277 0 4.551-1.138 5.689-2.277 7.963-5.689 14.791-9.102 20.48-4.551 5.689-9.102 11.378-15.929 15.929-13.652 9.102-31.858 13.652-51.2 12.517s-36.409-6.828-48.923-18.203c-7.963-5.689-13.652-13.652-18.203-23.892-5.689-13.652-21.618-23.892-39.822-23.892zM548.409 175.218c0-25.136-20.374-45.511-45.511-45.511s-45.511 20.374-45.511 45.511c0 25.136 20.374 45.511 45.511 45.511s45.511-20.374 45.511-45.511z" />
<glyph unicode="&#xe906;" glyph-name="arrow-left" d="M988.545 462.126h-867.475l158.124 158.134c13.853 13.844 13.853 36.303 0 50.145-13.853 13.853-36.311 13.853-50.143 0l-218.661-218.665c-13.853-13.844-13.853-36.305 0-50.145l218.661-218.675c6.924-6.928 15.999-10.387 25.072-10.387s18.147 3.459 25.072 10.387c13.853 13.844 13.853 36.303 0 50.143l-158.124 158.142h867.475c19.583 0 35.463 15.878 35.463 35.461s-15.878 35.459-35.463 35.459z" />
<glyph unicode="&#xe907;" glyph-name="arrow-right" d="M35.463 462.126h867.475l-158.124 158.134c-13.853 13.844-13.853 36.303 0 50.145 13.853 13.853 36.311 13.853 50.143 0l218.661-218.665c13.853-13.844 13.853-36.305 0-50.145l-218.661-218.675c-6.924-6.928-15.999-10.387-25.072-10.387s-18.147 3.459-25.072 10.387c-13.853 13.844-13.853 36.303 0 50.143l158.124 158.142h-867.475c-19.583 0-35.463 15.878-35.463 35.461s15.878 35.459 35.463 35.459z" />
<glyph unicode="&#xe908;" glyph-name="arrowdown" d="M547.467 903.204v-867.475l158.134 158.124c13.844 13.853 36.303 13.853 50.145 0 13.853-13.853 13.853-36.311 0-50.143l-218.665-218.661c-13.844-13.853-36.305-13.853-50.145 0l-218.675 218.661c-6.928 6.924-10.387 15.999-10.387 25.072s3.459 18.147 10.387 25.072c13.844 13.853 36.303 13.853 50.143 0l158.142-158.124v867.475c0 19.583 15.878 35.463 35.461 35.463s35.459-15.878 35.459-35.463z" />
<glyph unicode="&#xe909;" glyph-name="arrow-up" d="M547.465-49.876v867.475l158.134-158.124c13.844-13.853 36.303-13.853 50.145 0 13.853 13.853 13.853 36.311 0 50.143l-218.665 218.661c-13.844 13.853-36.305 13.853-50.145 0l-218.675-218.661c-6.928-6.924-10.387-15.999-10.387-25.072s3.459-18.147 10.387-25.072c13.844-13.853 36.303-13.853 50.143 0l158.142 158.124v-867.475c0-19.583 15.878-35.463 35.461-35.463s35.459 15.878 35.459 35.463z" />
<glyph unicode="&#xe90a;" glyph-name="close" d="M566.233 426.18l230.516 230.518c15.003 15.001 15.003 39.236 0 54.226-15.001 15.001-39.236 15.001-54.226 0l-230.518-230.518-230.516 230.518c-15.003 15.001-39.236 15.001-54.226 0-15.003-15.001-15.003-39.236 0-54.226l230.516-230.518-230.516-230.518c-15.003-15.001-15.003-39.236 0-54.226 7.472-7.484 17.297-11.229 27.113-11.229s19.629 3.755 27.113 11.229l230.516 230.518 230.518-230.518c7.484-7.484 17.297-11.229 27.113-11.229s19.629 3.755 27.113 11.229c15.003 15.001 15.003 39.236 0 54.226z" />
<glyph unicode="&#xe90b;" glyph-name="plus" d="M850.396 464.267h-300.793v300.803c0 20.748-16.847 37.597-37.606 37.597-20.748 0-37.597-16.847-37.597-37.597v-300.803h-300.803c-20.748 0-37.597-16.847-37.597-37.597s16.847-37.606 37.597-37.606h300.803v-300.793c0-20.748 16.847-37.606 37.597-37.606s37.606 16.847 37.606 37.606v300.793h300.793c20.748 0 37.606 16.847 37.606 37.606 0 20.748-16.847 37.597-37.606 37.597z" />
<glyph unicode="&#xe90c;" glyph-name="hide" d="M504.206 588.842l146.585-146.585 0.698 7.678c0 77.016-62.589 139.605-139.605 139.605l-7.678-0.698zM511.884 682.608c128.436 0 232.675-104.239 232.675-232.675 0-30.015-6.049-58.634-16.519-84.925l136.115-136.115c70.267 58.634 125.644 134.485 159.847 221.040-80.737 204.287-279.209 349.012-512.116 349.012-65.15 0-127.505-11.633-185.441-32.574l100.515-100.282c26.289 10.237 54.908 16.519 84.923 16.519zM46.534 809.417l127.274-127.274c-76.783-60.030-137.511-139.838-173.808-232.208 80.506-204.287 279.209-349.012 511.884-349.012 72.13 0 141.001 13.96 204.056 39.323l19.778-19.778 135.65-135.881 59.332 59.099-824.834 825.063-59.332-59.332zM303.873 552.311l71.896-71.896c-2.094-10.006-3.49-20.009-3.49-30.48 0-77.016 62.589-139.605 139.605-139.605 10.47 0 20.476 1.396 30.248 3.49l71.896-71.896c-30.946-15.357-65.381-24.664-102.145-24.664-128.436 0-232.675 104.239-232.675 232.675 0 36.762 9.308 71.198 24.664 102.376z" />
<glyph unicode="&#xe90d;" glyph-name="trash" d="M682.668 767.999v42.668c0 25.6-17.068 42.668-42.668 42.668h-256c-25.6 0-42.668-17.068-42.668-42.668v-42.668h-213.332v-85.332h768v85.332h-213.332zM170.668 597.335l38.4-558.932c0-21.332 21.332-38.4 42.668-38.4h516.268c21.332 0 42.668 17.068 42.668 38.4l42.668 558.932h-682.668zM384 127.999c0-25.6-17.068-42.668-42.668-42.668s-42.668 17.068-42.668 42.668v341.332c0 25.6 17.068 42.668 42.668 42.668s42.668-17.068 42.668-42.668v-341.332zM554.668 127.999c0-25.6-17.068-42.668-42.668-42.668s-42.668 17.068-42.668 42.668v341.332c0 25.6 17.068 42.668 42.668 42.668s42.668-17.068 42.668-42.668v-341.332zM725.332 127.999c0-25.6-17.068-42.668-42.668-42.668s-42.668 17.068-42.668 42.668v341.332c0 25.6 17.068 42.668 42.668 42.668s42.668-17.068 42.668-42.668v-341.332z" />
<glyph unicode="&#xe90e;" glyph-name="edit" d="M183.677 268.586l-77.015-247.253 247.253 77.015zM893.013 750.93l-60.801 56.742c-32.424 32.424-81.062 32.424-113.496 0l-478.292-482.344 170.241-170.241 482.344 482.344c32.424 32.424 32.424 81.062 0 113.496z" />
<glyph unicode="&#xe90f;" glyph-name="convert" d="M23.753 572.143c-32.499 32.083-30.483 64.933 0 90.043l443.018 259.029c31.603 22.999 57.96 22.999 88.572 0l443.018-259.029c35.473-31.091 31.475-63.942 0-90.043l-443.018-259.061c-25.749-18.744-56.969-21.111-88.572 0l-443.018 259.061zM560.812 186.702c-28.98-20.632-64.198-23.254-99.671 0l-455.621 260.405c-9.884-20.632-4.99-43.854 18.232-66.821l443.018-259.029c31.603-21.111 62.822-18.744 88.572 0l443.018 259.029c23.862 19.736 31.859 43.47 18.872 67.332l-456.42-260.917zM560.812-5.155c-28.98-20.6-64.198-23.222-99.671 0l-455.621 260.437c-9.884-20.632-4.99-43.822 18.232-66.821l443.018-259.061c31.603-21.079 62.822-18.712 88.572 0l443.018 259.061c23.862 19.736 31.859 43.438 18.872 67.3l-456.42-260.917z" />
<glyph unicode="&#xe910;" glyph-name="show" d="M512.001 566.302c-77.034 0-139.636-62.603-139.636-139.636s62.603-139.636 139.636-139.636 139.636 62.603 139.636 139.636-62.605 139.636-139.636 139.636zM512.001 775.756c-232.728 0-431.476-144.755-512-349.090 80.524-204.334 279.272-349.090 512-349.090 232.959 0 431.476 144.757 512 349.090-80.524 204.336-279.041 349.090-512 349.090zM512.001 193.94c-128.466 0-232.728 104.263-232.728 232.728s104.263 232.726 232.728 232.726 232.728-104.263 232.728-232.728-104.263-232.726-232.728-232.726z" />
<glyph unicode="&#xe911;" glyph-name="combine" d="M927.644 619.601h-76.441v66.83c0 52.775-42.72 95.44-95.44 95.44h-69.33v60.663c-0.055 52.719-42.776 95.44-95.495 95.44h-496.418c-52.719 0-95.44-42.72-95.44-95.44v-496.473c0-52.719 42.72-95.44 95.44-95.44h69.33v-60.608c0.055-52.775 42.72-95.44 95.495-95.495h76.329v-66.83c0.055-52.719 42.776-95.44 95.495-95.44h496.418c52.719 0 95.44 42.72 95.495 95.44v496.473c-0.055 52.719-42.72 95.44-95.44 95.44zM163.852 686.431v-359.48h-69.33c-10.555 0.055-19.054 8.555-19.054 19.11v496.473c0 10.499 8.555 19.054 19.054 19.054h496.418c10.499 0 19.11-8.555 19.11-19.054v-60.663h-350.703c-52.775 0-95.44-42.72-95.495-95.44zM774.874 619.601h-343.703c-52.719 0-95.44-42.72-95.44-95.44v-353.259h-76.384c-10.555 0-19.054 8.555-19.11 19.11v496.418c0.055 10.555 8.555 19.11 19.11 19.11h496.418c10.555 0 19.11-8.555 19.11-19.11z" />
<glyph unicode="&#xe912;" glyph-name="ellipsis" d="M1024.001 426.667c0-56.611-45.892-102.503-102.503-102.503s-102.503 45.892-102.503 102.503c0 56.611 45.892 102.503 102.503 102.503s102.503-45.892 102.503-102.503zM614.332 426.667c0-56.611-45.892-102.503-102.503-102.503s-102.503 45.892-102.503 102.503c0 56.611 45.892 102.503 102.503 102.503s102.503-45.892 102.503-102.503zM205.007 426.667c0-56.611-45.892-102.503-102.503-102.503s-102.503 45.892-102.503 102.503c0 56.611 45.892 102.503 102.503 102.503s102.503-45.892 102.503-102.503z" />
<glyph unicode="&#xe913;" glyph-name="ellipsis-vertical" d="M512 938.668c56.611 0 102.503-45.892 102.503-102.503s-45.892-102.503-102.503-102.503c-56.611 0-102.503 45.892-102.503 102.503s45.892 102.503 102.503 102.503zM512 528.999c56.611 0 102.503-45.892 102.503-102.503s-45.892-102.503-102.503-102.503c-56.611 0-102.503 45.892-102.503 102.503s45.892 102.503 102.503 102.503zM512 119.674c56.611 0 102.503-45.892 102.503-102.503s-45.892-102.503-102.503-102.503c-56.611 0-102.503 45.892-102.503 102.503s45.892 102.503 102.503 102.503z" />
<glyph unicode="&#xe914;" glyph-name="caret-up" d="M872 297.72l-360 360.005-360-360.005 102.128-102.128 257.873 257.873 257.873-257.873z" />
<glyph unicode="&#xe915;" glyph-name="caret-right" d="M383.053 786.667l360.005-360-360.005-360-102.128 102.128 257.873 257.873-257.873 257.873z" />
<glyph unicode="&#xe916;" glyph-name="caret-down" d="M152 555.614l360-360.005 360 360.005-102.128 102.128-257.873-257.873-257.873 257.873z" />
<glyph unicode="&#xe917;" glyph-name="wand" d="M1024 538.475l-65.449 13.635-32.724 61.358-32.724-61.358-65.449-13.635 44.996-50.45-6.818-69.539 59.995 29.997 59.995-29.997-8.181 69.539 46.36 50.45zM748.57 677.554l80.447 39.542 80.447-39.542-10.908 92.719 59.995 68.176-87.265 17.726-42.269 81.811-42.269-81.811-87.265-17.726 59.995-68.176-10.908-92.719zM346.333 743.003l59.995 29.997 59.995-29.997-8.181 69.539 44.996 50.45-65.449 13.635-32.724 61.358-31.361-61.358-65.449-13.635 44.996-50.45-6.818-69.539zM718.572 586.198l-46.36 46.36c-38.178 38.178-99.537 38.178-137.715 0l-505.864-504.501c-38.178-38.178-38.178-99.537 0-137.715l46.36-46.36c38.178-38.178 99.537-38.178 137.715 0l505.864 505.864c38.178 36.815 38.178 99.537 0 136.352 0 0 38.178-36.815 0 0v0 0zM672.213 494.843l-137.715-137.715c-12.272-12.272-32.724-12.272-46.36 0l-44.996 46.36c-12.272 12.272-12.272 32.724 0 46.36l137.715 137.715c12.272 12.272 32.724 12.272 46.36 0l46.36-46.36c10.908-12.272 10.908-34.088-1.364-46.36 0 0 12.272 12.272 0 0v0 0zM785.385 248.047l-21.816 40.905-21.816-40.905-43.632-8.181 29.997-34.088-5.454-46.36 39.542 20.453 39.542-20.453-4.091 44.996 29.997 34.088-42.269 9.545z" />
<glyph unicode="&#xe918;" glyph-name="edit-widget" d="M743.424 344.747c-2.048-167.936-140.288-303.104-308.224-303.104-169.984 0-308.224 138.24-308.224 308.224 0 167.936 136.192 305.152 303.104 308.224l91.136 91.136c-27.648 6.144-56.32 9.216-87.040 9.216-225.28 0-409.6-183.296-409.6-409.6 0-225.28 183.296-408.576 409.6-408.576 225.28 0 409.6 183.296 409.6 408.576 0 29.696-3.072 59.392-9.216 87.040l-91.136-91.136zM978.944 786.091l-107.52 107.52c-24.576 24.576-68.608 24.576-93.184 0l-367.616-366.592c-16.384-16.384-28.672-36.864-34.816-59.392l-53.248-194.56c-3.072-10.24 0-20.48 7.168-27.648 5.12-5.12 13.312-8.192 20.48-8.192 3.072 0 5.12 0 8.192 1.024l194.56 53.248c22.528 6.144 43.008 18.432 59.392 34.816l366.592 366.592c12.288 12.288 19.456 28.672 19.456 46.080 0 18.432-7.168 34.816-19.456 47.104zM537.6 346.795l-67.584-18.432c-4.096 13.312-10.24 25.6-20.48 35.84-10.24 9.216-22.528 15.36-35.84 20.48l18.432 67.584c3.072 11.264 9.216 22.528 17.408 31.744 27.648-9.216 52.224-24.576 73.728-45.056 20.48-20.48 35.84-46.080 45.056-73.728-9.216-9.216-19.456-15.36-30.72-18.432z" />
<glyph unicode="&#xe919;" glyph-name="no-control" d="M499.020-85.333c-44.71 0-82.208 37.499-83.651 82.208v2.885c0 25.961-21.634 56.248-46.152 66.344l-12.98 5.769c-24.518 10.096-60.575 2.885-79.324-14.423l-7.211-7.211c-33.172-31.73-85.093-31.73-116.823 1.442l-17.307 17.307c-31.73 31.73-31.73 85.093-1.442 116.823l7.211 7.211c18.749 18.749 25.961 54.806 14.423 79.324l-5.769 12.98c-10.096 24.518-40.383 44.71-66.344 46.152h-2.885c-43.268 0-80.766 37.499-80.766 82.208v24.518c0 44.71 37.499 82.208 82.208 83.651h2.885c25.961 0 56.248 21.634 66.344 46.152l5.769 12.98c10.096 24.518 2.885 60.575-14.423 79.324l-7.211 7.211c-31.73 33.172-31.73 85.093 1.442 116.823l17.307 17.307c31.73 31.73 85.093 31.73 116.823 1.442l7.211-7.211c18.749-18.749 54.806-25.961 79.324-14.423l12.98 5.769c24.518 10.096 44.71 40.383 46.152 66.344v2.885c0 44.71 37.499 82.208 82.208 82.208h24.518c0 0 0 0 0 0 44.71 0 82.208-37.499 83.651-82.208v-2.885c0-25.961 21.634-56.248 46.152-66.344l12.98-5.769c24.518-10.096 60.575-2.885 79.324 14.423l7.211 7.211c33.172 31.73 85.093 31.73 116.823-1.442l17.307-17.307c31.73-31.73 31.73-85.093 1.442-116.823l-7.211-7.211c-18.749-18.749-25.961-54.806-14.423-79.324l5.769-12.98c10.096-24.518 40.383-44.71 66.344-46.152h2.885c44.71-1.442 82.208-38.941 82.208-83.651v-24.518c0-44.71-37.499-82.208-82.208-83.651h-2.885c-25.961 0-56.248-21.634-66.344-46.152l-5.769-12.98c-10.096-24.518-2.885-60.575 14.423-79.324l7.211-7.211c31.73-33.172 31.73-85.093-1.442-116.823l-17.307-17.307c-31.73-31.73-85.093-31.73-116.823-1.442l-7.211 7.211c-18.749 18.749-54.806 25.961-79.324 14.423l-12.98-5.769c-24.518-10.096-44.71-40.383-46.152-66.344v-2.885c-1.442-44.71-38.941-82.208-83.651-82.208l-24.518 1.442c0 0 0 0 0 0zM331.718 94.949c11.538 0 23.076-1.442 33.172-5.769l12.98-5.769c31.73-12.98 56.248-50.479 57.69-83.651v-2.885c0-34.614 28.845-63.459 64.901-63.459 0 0 0 0 0 0h24.518c34.614 0 63.459 28.845 64.901 63.459v2.885c0 34.614 25.961 70.67 57.69 83.651l12.98 5.769c31.73 12.98 74.997 4.327 99.515-18.749l7.211-7.211c24.518-24.518 66.344-24.518 90.862 0l17.307 17.307c24.518 24.518 24.518 64.901 0 90.862l-7.211 7.211c-23.076 24.518-31.73 69.228-18.749 99.515l5.769 12.98c12.98 31.73 50.479 56.248 83.651 57.69h2.885c34.614 0 63.459 28.845 63.459 64.901v24.518c0 34.614-28.845 63.459-63.459 64.901h-2.885c-34.614 0-70.67 25.961-83.651 57.69l-5.769 12.98c-12.98 31.73-4.327 74.997 18.749 99.515l7.211 7.211c24.518 24.518 24.518 66.344 0 90.862l-17.307 17.307c-24.518 24.518-64.901 24.518-90.862 0l-7.211-7.211c-24.518-23.076-69.228-31.73-99.515-18.749l-12.98 5.769c-31.73 12.98-56.248 50.479-57.69 83.651v2.885c0 34.614-28.845 63.459-64.901 63.459 0 0 0 0 0 0h-24.518c-34.614 0-63.459-28.845-64.901-63.459v-2.885c0-34.614-25.961-70.67-57.69-83.651l-12.98-5.769c-31.73-12.98-74.997-4.327-99.515 18.749l-7.211 7.211c-24.518 24.518-66.344 24.518-90.862 0l-17.307-17.307c-24.518-24.518-24.518-64.901 0-90.862l7.211-7.211c23.076-24.518 31.73-69.228 18.749-99.515l-5.769-12.98c-12.98-31.73-50.479-56.248-83.651-57.69h-2.885c-34.614 0-63.459-28.845-63.459-64.901v-24.518c0-34.614 28.845-63.459 63.459-64.901h2.885c34.614 0 70.67-25.961 83.651-57.69l5.769-12.98c12.98-31.73 4.327-74.997-18.749-99.515l-7.211-7.211c-24.518-24.518-24.518-66.344 0-90.862l17.307-17.307c24.518-24.518 64.901-24.518 90.862 0l7.211 7.211c15.865 15.865 41.825 24.518 66.344 24.518zM512 180.042c-31.73 0-63.459 5.769-93.746 18.749v0c-125.476 51.921-184.608 196.146-132.687 321.623s194.704 186.051 320.18 134.13c125.476-51.921 184.608-196.146 132.687-321.623-37.499-95.189-129.803-152.879-226.434-152.879zM425.465 217.54c115.38-47.594 249.51 7.211 297.104 122.592s-7.211 249.51-122.592 297.104c-115.38 47.594-249.51-7.211-297.104-122.592-49.037-116.823 7.211-249.51 122.592-297.104v0z" />
<glyph unicode="&#xe91a;" glyph-name="move-left" d="M372.122 128.478v0c23.962 23.962 23.962 62.464 0 86.221l-151.757 151.757h742.605c33.792 0.205 61.030 27.443 61.030 61.030v0c0 33.587-27.238 61.030-61.030 61.030h-742.605l151.757 151.757c23.757 23.757 23.757 62.464 0 86.221v0c-23.757 23.757-62.464 23.757-86.221 0l-276.48-276.48c-12.493-12.493-12.493-32.563 0-45.056l276.48-276.48c23.757-23.757 62.259-23.757 86.221 0z" />
<glyph unicode="&#xe91b;" glyph-name="move-right" d="M651.878 128.478v0c-23.962 23.962-23.962 62.464 0 86.221l151.757 151.757h-742.605c-33.792 0.205-61.030 27.443-61.030 61.030v0c0 33.587 27.238 61.030 61.030 61.030h742.605l-151.757 151.757c-23.757 23.757-23.757 62.464 0 86.221v0c23.757 23.757 62.464 23.757 86.221 0l276.48-276.48c12.493-12.493 12.493-32.563 0-45.056l-276.48-276.48c-23.757-23.757-62.259-23.757-86.221 0z" />
<glyph unicode="&#xe91c;" glyph-name="switches" d="M785.209 908.8h-546.418c-115.386 0-208.924-93.539-208.924-208.924s93.539-208.924 208.924-208.924v0h546.418c115.386 0 208.924 93.539 208.924 208.924s-93.539 208.924-208.924 208.924v0zM238.791 544.522c-85.799 0-155.354 69.555-155.354 155.354s69.555 155.354 155.354 155.354c85.799 0 155.354-69.555 155.354-155.354v0c0-85.799-69.555-155.354-155.354-155.354v0zM785.209 362.383h-546.418c-115.386 0-208.924-93.539-208.924-208.924s93.539-208.924 208.924-208.924v0h546.418c115.386 0 208.924 93.539 208.924 208.924s-93.539 208.924-208.924 208.924v0zM785.209-1.896c-85.799 0-155.354 69.555-155.354 155.354s69.555 155.354 155.354 155.354c85.799 0 155.354-69.555 155.354-155.354v0c0-85.799-69.555-155.354-155.354-155.354v0z" />
</font>
</defs>
</svg>
