<svg version="1.1" xmlns="http://www.w3.org/2000/svg" xmlns:xlink="http://www.w3.org/1999/xlink" x="0px" y="0px" viewBox="0 0 192 174" style="enable-background:new 0 0 192 174;" xml:space="preserve"> <path style="fill-rule:evenodd;clip-rule:evenodd;" d="M0,111.6l45.2-46.3c1.8-1.8,4.2-2.8,6.7-2.8H140c2.5,0,5,1,6.7,2.8l45.2,46.3 v47.4c0,8.3-6.7,15.1-15.1,15.1H15.1C6.7,174,0,167.3,0,158.9V111.6z M14.1,107.8L50.8,70h90.4l36.7,37.8h-47.1v7.6 c0,9.4-7.6,16.9-16.9,16.9H78.1c-9.4,0-16.9-7.6-16.9-16.9v-7.6H14.1z M7.5,115.5H54c0,13.1,10.6,23.7,23.7,23.7h36.6 c13.1,0,23.7-10.6,23.7-23.7h46.5v42c0,5-4,9-9,9h-159c-5,0-9-4-9-9V115.5z M99.8,43.5c0,2.1-1.7,3.8-3.8,3.8s-3.8-1.7-3.8-3.8V3.8 C92.2,1.7,93.9,0,96,0s3.8,1.7,3.8,3.8V43.5z M124.1,46.9c-0.5,2-2.6,3.2-4.6,2.7c-2-0.5-3.2-2.6-2.7-4.6l10.2-38.4 c0.5-2,2.6-3.2,4.6-2.7s3.2,2.6,2.7,4.6L124.1,46.9z M76,45c0.5,2-0.7,4.1-2.7,4.6c-2,0.5-4.1-0.7-4.6-2.7L58.5,8.5 c-0.5-2,0.7-4.1,2.7-4.6s4.1,0.7,4.6,2.7L76,45z"/> </svg>