<svg version="1.1" id="Layer_1" xmlns="http://www.w3.org/2000/svg" xmlns:xlink="http://www.w3.org/1999/xlink" x="0px" y="0px" viewBox="0 0 177.9 177.8" style="enable-background:new 0 0 177.9 177.8;" xml:space="preserve"> <path d="M115.4,88.9l59.7-59.7c3.7-3.7,3.7-9.6,0-13.3c0,0,0,0,0,0L161.8,2.7c-3.7-3.7-9.6-3.7-13.3,0L88.9,62.4L29.3,2.7 c-3.7-3.7-9.6-3.7-13.3,0L2.7,16c-3.7,3.7-3.7,9.6,0,13.3l59.7,59.7L2.7,148.6c-3.7,3.7-3.7,9.6,0,13.3L16,175.1 c3.7,3.7,9.6,3.7,13.3,0l59.7-59.7l59.7,59.7c3.7,3.7,9.6,3.7,13.3,0c0,0,0,0,0,0l13.3-13.3c3.7-3.7,3.7-9.6,0-13.3c0,0,0,0,0,0 L115.4,88.9z"/> </svg>
